<svg width="80" height="33" viewBox="0 0 80 33" fill="none" xmlns="http://www.w3.org/2000/svg">
<path d="M46.2554 0.590332H3.12981C1.59954 0.590332 0.359009 1.83086 0.359009 3.36113V29.1644C0.359009 30.6947 1.59954 31.9352 3.12981 31.9352H46.2554C47.7857 31.9352 49.0262 30.6947 49.0262 29.1644V3.36113C49.0262 1.83086 47.7857 0.590332 46.2554 0.590332Z" fill="#F9F9F9" stroke="black" stroke-width="0.615904" stroke-linecap="round" stroke-linejoin="round"/>
<path d="M14.9405 22.7653C14.7958 22.8176 14.6094 22.8769 14.3808 22.9431C14.1521 23.0101 13.8881 23.0709 13.587 23.1256C13.2868 23.1802 12.9511 23.2272 12.5808 23.2641C12.2105 23.3026 11.8086 23.3211 11.3744 23.3211C10.2696 23.3211 9.31575 23.1556 8.51199 22.8261C7.70747 22.4966 7.04537 22.0508 6.52493 21.4903C6.0036 20.9284 5.60854 20.2613 5.36626 19.5341C5.11166 18.772 4.98422 17.9732 4.98902 17.1698C4.98902 16.1866 5.14838 15.2836 5.46634 14.4629C5.76832 13.6666 6.23384 12.9425 6.83288 12.3372C7.42569 11.7414 8.14322 11.2786 8.9847 10.9491C9.82618 10.6196 10.7708 10.4541 11.8179 10.4541C12.54 10.4541 13.1636 10.4995 13.6871 10.5888C14.2106 10.6789 14.6279 10.7636 14.9405 10.8452V14.3066C14.7908 14.2201 14.6357 14.1433 14.4763 14.0764C14.2759 13.992 14.0701 13.9211 13.8603 13.8639C13.6136 13.7964 13.3629 13.7442 13.1097 13.7076C12.8224 13.666 12.5324 13.6457 12.2421 13.6468C11.8086 13.6468 11.3921 13.7092 10.9933 13.8339C10.6055 13.9517 10.2474 14.1512 9.9432 14.419C9.64295 14.6854 9.40197 15.0234 9.22336 15.4345C9.04398 15.8448 8.9539 16.3337 8.9539 16.9003C8.9539 17.3807 9.02627 17.8188 9.17101 18.2153C9.31575 18.611 9.52669 18.9497 9.80462 19.23C10.0818 19.511 10.4221 19.7288 10.8239 19.8851C11.2258 20.0414 11.6816 20.1192 12.1905 20.1192C12.4735 20.1202 12.7562 20.0985 13.0358 20.0545C13.3053 20.0106 13.5555 19.9544 13.7864 19.8851C14.0174 19.8158 14.2307 19.7404 14.4239 19.6596C14.6179 19.5787 14.7904 19.5002 14.9405 19.4255V22.7653ZM28.7267 16.8487C28.7267 17.838 28.5651 18.7296 28.2409 19.5248C27.9376 20.289 27.4812 20.983 26.8998 21.5642C26.3274 22.1298 25.6454 22.5726 24.8958 22.8653C24.1067 23.1733 23.2661 23.328 22.4191 23.3211C21.5937 23.3266 20.7743 23.1794 20.0025 22.8869C19.2661 22.6093 18.5934 22.1859 18.0246 21.642C17.4611 21.1016 17.0161 20.4433 16.6889 19.668C16.3617 18.8935 16.1985 18.0205 16.1985 17.0481C16.1985 16.0765 16.3548 15.185 16.6673 14.3766C16.9791 13.566 17.4157 12.8708 17.9769 12.2895C18.5471 11.7021 19.2343 11.241 19.994 10.9361C20.7777 10.615 21.6415 10.4541 22.5839 10.4541C23.4746 10.4541 24.2961 10.6035 25.0475 10.9006C25.7996 11.1994 26.4479 11.6243 26.9914 12.1763C27.535 12.7291 27.9599 13.4004 28.2663 14.1896C28.5728 14.9787 28.7267 15.8656 28.7267 16.8487ZM24.7526 16.9527C24.7526 16.4207 24.6987 15.9495 24.5925 15.5384C24.4847 15.128 24.3353 14.7824 24.1413 14.5022C23.9644 14.2368 23.7262 14.0179 23.4469 13.8639C23.1705 13.7177 22.8618 13.6433 22.5492 13.6476C22.1273 13.6476 21.7655 13.7338 21.4645 13.9078C21.1642 14.081 20.9178 14.3158 20.7269 14.6099C20.5367 14.9056 20.3974 15.2489 20.3112 15.6423C20.2221 16.0557 20.1782 16.4775 20.1803 16.9003C20.1803 17.4793 20.2442 17.972 20.3712 18.38C20.499 18.7881 20.6692 19.1199 20.8832 19.3778C21.0972 19.6349 21.3436 19.8228 21.6207 19.9414C21.8979 20.0599 22.1874 20.1192 22.4884 20.1192C22.7779 20.1192 23.0581 20.0576 23.3299 19.9329C23.6016 19.8082 23.8434 19.6172 24.0543 19.3601C24.2653 19.103 24.4346 18.775 24.5624 18.3754C24.6895 17.9766 24.7526 17.5024 24.7526 16.9527ZM42.2258 16.7279C42.2258 17.6987 42.0718 18.5779 41.7616 19.3647C41.4521 20.1515 41.0156 20.8205 40.452 21.3733C39.8877 21.9253 39.2086 22.3518 38.4134 22.6529C37.6181 22.9531 36.7343 23.104 35.7627 23.104H30.4967V10.6628H35.6495C36.4887 10.6628 37.2331 10.7336 37.8837 10.8752C38.5342 11.0169 39.1039 11.2178 39.5928 11.4781C40.0541 11.7174 40.4708 12.0344 40.8246 12.415C41.1567 12.7787 41.4305 13.1916 41.6361 13.6391C41.8439 14.0895 41.9948 14.5753 42.0872 15.0957C42.1796 15.6169 42.2258 16.1605 42.2258 16.7279ZM38.244 16.7617C38.244 16.3568 38.1824 15.9634 38.0615 15.5823C37.9456 15.2104 37.7569 14.8652 37.5064 14.5668C37.2474 14.2642 36.9246 14.0228 36.561 13.8601C36.1792 13.683 35.728 13.5952 35.2076 13.5952H34.2445V20.1715H35.2938C35.7174 20.1784 36.1375 20.0941 36.5256 19.9244C36.8829 19.7649 37.2001 19.5276 37.4541 19.23C37.7187 18.9138 37.9179 18.5482 38.04 18.1545C38.1806 17.7038 38.2495 17.2338 38.244 16.7617Z" fill="#4D4D4D"/>
<path d="M76.3893 0.590332H47.6504C46.1202 0.590332 44.8796 1.83086 44.8796 3.36113V29.1644C44.8796 30.6947 46.1202 31.9352 47.6504 31.9352H76.3893C77.9196 31.9352 79.1601 30.6947 79.1601 29.1644V3.36113C79.1601 1.83086 77.9196 0.590332 76.3893 0.590332Z" fill="#FF9900" stroke="black" stroke-width="0.615904" stroke-linecap="round" stroke-linejoin="round"/>
<path d="M47.4431 8.98349C47.2762 9.01166 47.127 9.10403 47.0275 9.24082C46.9279 9.37761 46.8858 9.54796 46.9102 9.71539C46.9347 9.88282 47.0237 10.034 47.1582 10.1366C47.2927 10.2393 47.4621 10.2851 47.63 10.2644H58.1757L57.6957 11.5732H49.338C49.2939 11.5686 49.2494 11.5686 49.2053 11.5732C49.037 11.5928 48.8831 11.6779 48.7771 11.8101C48.6711 11.9423 48.6214 12.1109 48.6389 12.2795C48.6563 12.448 48.7395 12.6029 48.8703 12.7106C49.0012 12.8183 49.1692 12.8701 49.338 12.8548H57.2415L56.7609 14.1894C56.7087 14.1738 56.6548 14.1649 56.6004 14.1629H51.5815C51.5372 14.1582 51.4925 14.1582 51.4482 14.1629C51.2782 14.1805 51.1222 14.265 51.0144 14.3978C50.9067 14.5305 50.8561 14.7006 50.8738 14.8706C50.8914 15.0406 50.9759 15.1967 51.1087 15.3044C51.2414 15.4121 51.4115 15.4628 51.5815 15.4451H56.3074L53.6911 22.6267C53.6512 22.7256 53.6365 22.8328 53.6484 22.9388C53.6604 23.0448 53.6985 23.146 53.7595 23.2335C53.8205 23.321 53.9023 23.3919 53.9975 23.4398C54.0928 23.4877 54.1985 23.5111 54.3051 23.5078H63.8364C63.9253 23.5081 64.0133 23.4899 64.0948 23.4544C64.1763 23.4189 64.2495 23.3668 64.3098 23.3015C64.3701 23.2361 64.4161 23.159 64.445 23.0749C64.4739 22.9908 64.4849 22.9016 64.4775 22.813C64.4655 22.6659 64.451 22.5882 64.451 22.5465C64.4497 22.0693 64.5428 21.5965 64.7248 21.1554C64.9069 20.7143 65.1743 20.3135 65.5117 19.976C65.8492 19.6386 66.25 19.3712 66.6911 19.1891C67.1322 19.0071 67.605 18.914 68.0822 18.9152C68.5595 18.914 69.0323 19.0071 69.4734 19.1892C69.9146 19.3713 70.3154 19.6387 70.6529 19.9763C70.9903 20.3138 71.2578 20.7146 71.4398 21.1558C71.6218 21.597 71.7148 22.0698 71.7134 22.5471C71.7134 22.585 71.697 22.6595 71.6863 22.8137C71.6788 22.9022 71.6899 22.9914 71.7188 23.0755C71.7476 23.1596 71.7937 23.2368 71.854 23.3021C71.9143 23.3674 71.9875 23.4196 72.069 23.4551C72.1505 23.4906 72.2385 23.5088 72.3274 23.5085H74.6771C74.7612 23.5084 74.8446 23.4917 74.9223 23.4594C75.0001 23.4271 75.0707 23.3798 75.1302 23.3202C75.1897 23.2606 75.2368 23.1899 75.269 23.1121C75.3011 23.0343 75.3176 22.9509 75.3175 22.8667V18.0076C75.322 17.8622 75.277 17.7196 75.1897 17.6032C75.1025 17.4869 74.9783 17.4036 74.8375 17.3671L70.4053 16.1923L66.1595 9.27721C66.1019 9.18783 66.0229 9.11417 65.9298 9.0629C65.8366 9.01163 65.7321 8.98433 65.6258 8.98349H47.6307C47.5861 8.97881 47.5413 8.97881 47.4968 8.98349C47.4791 8.98276 47.4607 8.98276 47.4431 8.98349ZM59.5647 10.2644H65.2784L69.4705 17.1C69.5529 17.2422 69.6868 17.3473 69.8445 17.3936L74.036 18.4883V22.2262H72.9148C72.7398 19.677 70.6738 17.6343 68.0822 17.6343C65.4887 17.6343 63.3955 19.6751 63.2224 22.2262H55.2393L59.5647 10.2644ZM64.2103 11.3862L60.8734 11.4393C60.7324 11.4406 60.5957 11.4885 60.4846 11.5754C60.3735 11.6623 60.2941 11.7834 60.2588 11.9199L59.084 16.2984C59.0597 16.3926 59.0571 16.4911 59.0764 16.5864C59.0958 16.6818 59.1366 16.7715 59.1957 16.8487C59.2549 16.926 59.3309 16.9887 59.4179 17.0322C59.5049 17.0757 59.6007 17.0989 59.6979 17.1H66.2397C66.3441 17.0988 66.4466 17.0722 66.5383 17.0225C66.63 16.9727 66.7082 16.9013 66.7661 16.8145C66.824 16.7277 66.8598 16.628 66.8705 16.5242C66.8811 16.4204 66.8662 16.3156 66.8272 16.2188L64.8249 11.7595C64.7715 11.643 64.6844 11.5451 64.5749 11.4786C64.4653 11.412 64.3383 11.3799 64.2103 11.3862ZM63.8099 12.6678L65.2519 15.8183H60.526L61.3534 12.7208L63.8099 12.6678ZM68.1618 20.277C66.6459 20.277 65.4123 21.5371 65.4123 23.0537C65.413 23.7827 65.7028 24.4818 66.2183 24.9973C66.7338 25.5129 67.4327 25.803 68.1618 25.8038C68.891 25.8031 69.5901 25.5132 70.1057 24.9976C70.6213 24.482 70.9112 23.7828 70.9119 23.0537C70.9119 21.5378 69.679 20.277 68.1618 20.277ZM68.1618 21.5593C68.5582 21.5596 68.9382 21.7171 69.2186 21.9972C69.499 22.2774 69.6568 22.6573 69.6575 23.0537C69.6575 23.878 68.9861 24.4957 68.1618 24.4957C67.3381 24.4957 66.6667 23.878 66.6667 23.0537C66.6672 22.6573 66.8249 22.2773 67.1052 21.9971C67.3854 21.7168 67.7654 21.5591 68.1618 21.5586V21.5593Z" fill="white"/>
</svg>
